<svg xmlns="http://www.w3.org/2000/svg" width="47" height="47" viewBox="0 0 47 47">
    <g fill="none" fill-rule="evenodd">
        <circle cx="23.113" cy="23.113" r="21.613" stroke="#343434" stroke-width="3"/>
        <path fill="#405BD3" d="M19.472 24.102c.429-1.598 2.083-3.245 3.672-3.671l8.1-2.174c1.6-.429 2.545.53 2.119 2.119l-2.173 8.1c-.43 1.6-2.084 3.246-3.672 3.672l-8.101 2.174c-1.6.429-2.545-.53-2.119-2.119l2.174-8.1z"/>
        <path stroke="#343434" stroke-width="3" d="M17.395 21.1l-2.73 10.176c-.128.474-.198.403.276.276l10.176-2.73c1.071-.287 2.316-1.53 2.605-2.604l2.73-10.176c.127-.474.197-.404-.277-.277l-10.176 2.73c-1.07.288-2.316 1.53-2.604 2.605z"/>
    </g>
</svg>
